<?xml version="1.0" encoding="UTF-8" standalone="no"?>
<!-- https://www.iconfinder.com/icons/9967671/answer_phone_call_support_contact_communication_icon?coming-from=related-results -->

<svg
   version="1.1"
   viewBox="0 0 32 32"
   xml:space="preserve"
   id="svg15"
   sodipodi:docname="ask.svg"
   width="32"
   height="32"
   inkscape:version="1.3 (0e150ed6c4, 2023-07-21)"
   xmlns:inkscape="http://www.inkscape.org/namespaces/inkscape"
   xmlns:sodipodi="http://sodipodi.sourceforge.net/DTD/sodipodi-0.dtd"
   xmlns="http://www.w3.org/2000/svg"
   xmlns:svg="http://www.w3.org/2000/svg"><defs
     id="defs15" /><sodipodi:namedview
     id="namedview15"
     pagecolor="#ffffff"
     bordercolor="#111111"
     borderopacity="1"
     inkscape:showpageshadow="0"
     inkscape:pageopacity="0"
     inkscape:pagecheckerboard="1"
     inkscape:deskcolor="#d1d1d1"
     inkscape:zoom="11.263697"
     inkscape:cx="16.113714"
     inkscape:cy="11.275161"
     inkscape:window-width="1920"
     inkscape:window-height="1052"
     inkscape:window-x="0"
     inkscape:window-y="28"
     inkscape:window-maximized="1"
     inkscape:current-layer="svg15" /><style
     type="text/css"
     id="style1">&#10;	.st0{display:none;}&#10;	.st1{fill:#DEFFFE;}&#10;	.st2{fill:#004358;}&#10;	.st3{fill:#04BFBF;}&#10;	.st4{fill:#BEDB39;}&#10;</style><g
     id="Layer_1" /><g
     class="st0"
     id="Layer_3" /><g
     class="st0"
     id="Layer_5" /><g
     id="Layer_4"
     transform="matrix(0.04778725,0,0,0.04778725,4.2166438,3.7484482)"><g
       id="g15"><g
         id="g9"><path
           class="st1"
           d="M 365.172,109.043 H 332.401 V 68.498 h 16.771 c 8.837,0 16,7.163 16,16 z"
           id="path1" /><path
           class="st2"
           d="M 332.401,68.498 H 226.872 c -11.58,0 -21,9.421 -21,21 v 66.719 c 0,5.527 2.145,10.741 5.957,14.646 v 9.978 c 0,3.559 1.979,6.754 5.166,8.339 1.325,0.658 2.746,0.983 4.158,0.983 1.984,0 3.952,-0.642 5.61,-1.896 l 14.597,-11.049 h 91.042 c 11.58,0 21,-9.421 21,-21 v -66.72 c -10e-4,-11.579 -9.422,-21 -21.001,-21 z"
           id="path2" /><g
           id="g3"><path
             class="st4"
             d="m 311.248,110.229 h -66.325 c -2.761,0 -5,-2.238 -5,-5 0,-2.762 2.239,-5 5,-5 h 66.325 c 2.761,0 5,2.238 5,5 0,2.762 -2.239,5 -5,5 z"
             id="path3" /></g><g
           id="g4"><path
             class="st4"
             d="m 311.248,141.773 h -12.913 c -2.761,0 -5,-2.238 -5,-5 0,-2.762 2.239,-5 5,-5 h 12.913 c 2.761,0 5,2.238 5,5 0,2.762 -2.239,5 -5,5 z"
             id="path4" /></g><g
           id="g5"><path
             class="st4"
             d="m 269.58,141.773 h -24.657 c -2.761,0 -5,-2.238 -5,-5 0,-2.762 2.239,-5 5,-5 h 24.657 c 2.761,0 5,2.238 5,5 0,2.762 -2.239,5 -5,5 z"
             id="path5" /></g><g
           id="g6"><path
             class="st3"
             d="M 383.085,46.996 H 316.76 c -2.761,0 -5,-2.238 -5,-5 0,-2.762 2.239,-5 5,-5 h 66.325 c 2.761,0 5,2.238 5,5 0,2.762 -2.239,5 -5,5 z"
             id="path6" /></g><g
           id="g7"><path
             class="st3"
             d="m 383.085,78.54 h -12.913 c -2.761,0 -5,-2.238 -5,-5 0,-2.762 2.239,-5 5,-5 h 12.913 c 2.761,0 5,2.238 5,5 0,2.762 -2.239,5 -5,5 z"
             id="path7" /></g><g
           id="g8"><path
             class="st2"
             d="m 409.958,126.928 c -1.985,0 -3.952,-0.641 -5.61,-1.896 l -14.597,-11.049 h -25.35 c -2.761,0 -5,-2.238 -5,-5 0,-2.762 2.239,-5 5,-5 h 27.029 c 1.089,0 2.149,0.355 3.018,1.014 l 14.834,11.228 V 105.43 c 0,-1.511 0.683,-2.939 1.857,-3.889 2.605,-2.105 4.099,-5.225 4.099,-8.559 V 26.264 c 0,-6.065 -4.935,-11 -11,-11 h -105.53 c -6.065,0 -11,4.935 -11,11 v 31.234 c 0,2.762 -2.239,5 -5,5 -2.761,0 -5,-2.238 -5,-5 V 26.264 c 0,-11.579 9.42,-21 21,-21 h 105.529 c 11.58,0 21,9.421 21,21 v 66.719 c 0,5.526 -2.145,10.741 -5.957,14.646 v 9.979 c 0,3.559 -1.979,6.754 -5.167,8.339 -1.322,0.657 -2.743,0.981 -4.155,0.981 z"
             id="path8" /></g></g><g
         id="g14"><g
           id="g10"><path
             class="st1"
             d="m 363.081,471.845 c -4.033,0.756 -17.075,2.195 -20.817,2.47 l 0.008,0.094 c -67.5,5.45 -133.622,-15.181 -186.186,-58.093 -24.294,-19.833 -44.497,-43.468 -60.009,-69.803 -1.713,-2.908 -6.141,-0.609 -4.738,2.461 12.162,26.608 28.864,51.224 49.702,72.824 47.112,48.835 110.326,77.151 177.997,79.733 l 0.003,-0.094 c 3.76,0.17 16.859,0.286 20.963,0.013 31.185,-4.344 56.059,-27.254 64.057,-56.569 -10.12,12.842 -24.27,22.571 -40.98,26.964 z"
             id="path9" /></g><g
           id="g13"><path
             class="st4"
             d="m 182.576,183.453 -2.114,-1.162 c -1.324,-0.728 -2.655,-1.402 -3.919,-1.988 -6.153,-2.91 -12.664,-4.932 -19.352,-6.009 l -7.04,-1.134 26.424,138.855 6.141,-3.674 c 6.328,-3.786 12.017,-8.473 16.91,-13.933 l 1.612,-1.799 z"
             id="path10" /><path
             class="st4"
             d="m 400.754,417.494 c -1.143,-6.327 -3.132,-12.478 -5.904,-18.265 -0.647,-1.364 -1.351,-2.727 -2.088,-4.048 l -1.165,-2.089 -108.613,-18.574 -1.795,1.593 c -5.497,4.878 -10.22,10.542 -14.038,16.833 l -3.764,6.201 138.652,25.46 z"
             id="path11" /><g
             id="g12"><path
               class="st2"
               d="m 332.352,507.49 c -1.28,0 -2.718,-0.002 -4.311,-0.007 -4.619,-0.014 -7.251,-0.022 -8.869,-0.144 l -0.003,0.094 C 251.499,504.851 188.285,476.536 141.172,427.7 93.936,378.737 67.922,314.294 67.922,246.243 c 0,-0.125 0.002,-0.261 0.007,-0.394 0.064,-42.74 34.855,-77.489 77.61,-77.489 v 0 c 11.573,0 22.71,2.492 33.103,7.407 2.119,0.98 4.319,2.146 6.501,3.445 1.257,0.749 2.123,2.011 2.37,3.453 l 18.644,109.051 c 0.247,1.445 -0.153,2.925 -1.093,4.05 -6.178,7.39 -13.803,13.646 -22.253,18.291 16.126,34.853 43.819,62.543 78.677,78.673 4.68,-8.366 10.958,-15.923 18.356,-22.053 1.123,-0.931 2.594,-1.327 4.033,-1.078 l 108.506,18.556 c 1.43,0.244 2.682,1.097 3.434,2.337 1.276,2.106 2.468,4.319 3.54,6.576 5.014,10.465 7.56,21.72 7.56,33.437 0,38.545 -28.692,71.542 -66.782,76.847 -0.259,0.048 -0.522,0.076 -0.787,0.083 -1.083,0.036 -3.431,0.055 -6.996,0.055 z m -12.849,-10.053 c 1.014,0.012 15.641,0.105 19.25,0.01 33.173,-4.621 58.165,-33.365 58.165,-66.943 0,-10.209 -2.215,-20.01 -6.584,-29.13 -0.608,-1.279 -1.256,-2.535 -1.938,-3.757 L 284.508,379.851 c -6.771,6.008 -12.36,13.407 -16.238,21.519 -1.158,2.42 -4.018,3.496 -6.482,2.439 -40.658,-17.436 -72.645,-49.429 -90.069,-90.084 -1.062,-2.479 0.032,-5.353 2.474,-6.497 8.194,-3.84 15.658,-9.4 21.711,-16.155 L 178.055,186.674 c -1.227,-0.674 -2.448,-1.293 -3.649,-1.849 -9.083,-4.295 -18.783,-6.464 -28.865,-6.465 -37.28,0 -67.61,30.33 -67.61,67.61 0,0.09 -0.002,0.179 -0.007,0.269 0.025,135.699 106.127,246.006 241.579,251.198 z M 77.911,246.407 c 0,0.004 -0.001,0.008 -0.001,0.013 0,-0.005 0.001,-0.009 0.001,-0.013 z m 0.004,-0.042 c -0.001,0.013 -0.002,0.026 -0.003,0.039 0,-0.013 0.002,-0.026 0.003,-0.039 z"
               id="path12" /></g></g></g></g></g></svg>
