<?xml version="1.0" encoding="UTF-8" standalone="no"?>
<!-- https://www.iconfinder.com/icons/9967658/headphone_bubble_speech_support_call_center_customer_service_hotline_headset_listen_icon -->

<svg
   version="1.1"
   viewBox="0 0 32 32"
   xml:space="preserve"
   id="svg24"
   sodipodi:docname="reply.svg"
   width="32"
   height="32"
   inkscape:version="1.3 (0e150ed6c4, 2023-07-21)"
   xmlns:inkscape="http://www.inkscape.org/namespaces/inkscape"
   xmlns:sodipodi="http://sodipodi.sourceforge.net/DTD/sodipodi-0.dtd"
   xmlns="http://www.w3.org/2000/svg"
   xmlns:svg="http://www.w3.org/2000/svg"><defs
     id="defs24" /><sodipodi:namedview
     id="namedview24"
     pagecolor="#ffffff"
     bordercolor="#111111"
     borderopacity="1"
     inkscape:showpageshadow="0"
     inkscape:pageopacity="0"
     inkscape:pagecheckerboard="1"
     inkscape:deskcolor="#d1d1d1"
     inkscape:zoom="14.010948"
     inkscape:cx="13.59651"
     inkscape:cy="8.4219854"
     inkscape:window-width="1920"
     inkscape:window-height="1052"
     inkscape:window-x="0"
     inkscape:window-y="28"
     inkscape:window-maximized="1"
     inkscape:current-layer="svg24" /><style
     type="text/css"
     id="style1">&#10;	.st0{display:none;}&#10;	.st1{fill:#DEFFFE;}&#10;	.st2{fill:#004358;}&#10;	.st3{fill:#04BFBF;}&#10;	.st4{fill:#BEDB39;}&#10;</style><g
     id="Layer_1" /><g
     class="st0"
     id="Layer_3" /><g
     class="st0"
     id="Layer_5" /><g
     id="Layer_4"
     transform="matrix(0.04764533,0,0,0.04764533,3.8027955,3.8027955)"><g
       id="g24"><path
         class="st1"
         d="m 305.617,267.89 h -32.771 v -40.545 h 16.771 c 8.837,0 16,7.163 16,16 z"
         id="path1" /><path
         class="st1"
         d="m 409.348,49.304 -17.878,-7.88 c -0.458,-1.471 -1.04,-2.915 -1.761,-4.312 -3.223,-6.24 -8.682,-10.852 -15.373,-12.986 -5.787,-1.845 -11.556,-3.48 -17.277,-4.938 6.037,2.308 10.954,6.692 13.943,12.48 3.222,6.239 3.821,13.361 1.688,20.052 -3.492,10.951 -13.557,18.309 -25.043,18.309 -2.706,0 -16.519,-4.491 10.712,4.194 2.599,0.829 5.288,1.25 7.994,1.25 5.813,0 11.258,-1.891 15.676,-5.172 l 14.488,8.071 c 13.254,-9.019 12.831,-29.068 12.831,-29.068 z"
         id="path2" /><path
         class="st2"
         d="m 30.749,194.747 c 0.163,0.016 0.325,0.023 0.485,0.023 2.545,0 4.722,-1.935 4.971,-4.521 2.158,-22.399 7.604,-42.245 7.659,-42.442 0.736,-2.661 -0.823,-5.416 -3.483,-6.153 -2.67,-0.737 -5.416,0.823 -6.153,3.482 -0.232,0.841 -5.731,20.85 -7.976,44.154 -0.266,2.75 1.748,5.192 4.497,5.457 z"
         id="path3" /><path
         class="st2"
         d="m 475.795,190.25 c 0.249,2.586 2.425,4.521 4.971,4.521 0.16,0 0.322,-0.008 0.485,-0.023 2.749,-0.265 4.763,-2.707 4.497,-5.456 -2.244,-23.305 -7.743,-43.313 -7.976,-44.154 -0.738,-2.659 -3.485,-4.219 -6.153,-3.482 -2.66,0.737 -4.22,3.492 -3.483,6.153 0.054,0.196 5.501,20.042 7.659,42.441 z"
         id="path4" /><g
         id="g6"><g
           id="g5"><path
             class="st3"
             d="m 459.8,156.963 c -0.796,0 -1.591,-0.19 -2.313,-0.567 -1.316,-0.687 -2.259,-1.923 -2.573,-3.374 -3.265,-15.064 -10.293,-28.701 -20.892,-40.532 -13.51,-15.081 -32.819,-27.658 -57.392,-37.382 -2.567,-1.017 -3.825,-3.922 -2.81,-6.489 1.017,-2.568 3.925,-3.822 6.489,-2.81 26.028,10.3 46.605,23.761 61.161,40.009 10.397,11.607 17.706,24.802 21.775,39.289 l 20.526,-8.566 C 478.713,119.96 470.008,104.705 457.855,91.139 440.763,72.058 417.069,56.504 387.43,44.91 c -2.572,-1.006 -3.841,-3.906 -2.835,-6.478 1.006,-2.572 3.907,-3.843 6.478,-2.835 31.11,12.169 56.086,28.611 74.231,48.869 14.231,15.887 24.098,33.953 29.325,53.698 0.639,2.415 -0.603,4.932 -2.908,5.894 l -29.997,12.52 c -0.616,0.257 -1.271,0.385 -1.924,0.385 z"
             id="path5" /></g></g><g
         id="g7"><path
           class="st3"
           d="m 23.678,262.67 c -2.448,0 -4.587,-1.799 -4.943,-4.292 L 9.359,192.902 c -0.392,-2.733 1.507,-5.267 4.24,-5.658 l 36.694,-5.255 c 2.432,-0.35 4.742,1.11 5.478,3.446 l 13.272,42.099 c 0.83,2.633 -0.632,5.441 -3.266,6.271 -2.637,0.837 -5.441,-0.633 -6.271,-3.266 l -11.996,-38.05 -27.544,3.944 8.667,60.526 c 0.392,2.733 -1.507,5.267 -4.24,5.658 -0.241,0.036 -0.48,0.053 -0.715,0.053 z"
           id="path6" /></g><g
         id="g9"><path
           class="st2"
           d="m 344.794,283.879 c 1.658,1.255 3.624,1.896 5.609,1.896 1.411,0 2.832,-0.325 4.156,-0.983 3.188,-1.585 5.167,-4.78 5.167,-8.339 v -9.978 c 3.812,-3.904 5.957,-9.119 5.957,-14.646 v -66.718 c 0,-11.579 -9.421,-21 -21,-21 H 239.154 c -11.579,0 -21,9.421 -21,21 v 30.233 c 0,2.762 2.238,5 5,5 2.762,0 5,-2.238 5,-5 v -30.233 c 0,-6.065 4.935,-11 11,-11 h 105.529 c 6.065,0 11,4.935 11,11 v 66.718 c 0,3.335 -1.494,6.454 -4.099,8.558 -1.176,0.949 -1.858,2.379 -1.858,3.89 v 10.795 l -14.834,-11.229 c -0.868,-0.658 -1.928,-1.014 -3.018,-1.014 h -26.029 c -2.762,0 -5,2.238 -5,5 0,2.762 2.238,5 5,5 h 24.351 z"
           id="path7" /><path
           class="st2"
           d="m 272.846,227.345 h -105.53 c -11.579,0 -21,9.421 -21,21 v 66.718 c 0,5.527 2.145,10.741 5.957,14.646 v 9.979 c 0,3.559 1.979,6.754 5.167,8.338 1.324,0.659 2.744,0.983 4.155,0.983 1.985,0 3.953,-0.642 5.61,-1.897 l 14.598,-11.049 h 91.042 c 11.579,0 21,-9.421 21,-21 v -66.718 c 10e-4,-11.579 -9.42,-21 -20.999,-21 z"
           id="path8" /><path
           class="st2"
           d="m 64.381,389.128 -20.236,2.898 c -1.84,0.259 -3.678,-0.213 -5.182,-1.34 -1.504,-1.127 -2.477,-2.76 -2.74,-4.598 L 19.651,270.368 c -0.263,-1.838 0.213,-3.678 1.34,-5.181 1.127,-1.504 2.76,-2.477 4.598,-2.74 l 20.236,-2.898 c 2.733,-0.392 4.632,-2.925 4.24,-5.658 -0.391,-2.733 -2.919,-4.642 -5.658,-4.24 l -20.236,2.898 c -4.481,0.642 -8.453,3 -11.182,6.641 -2.729,3.642 -3.879,8.114 -3.236,12.597 l 16.571,115.721 c 0.642,4.481 3,8.453 6.642,11.182 2.981,2.234 6.521,3.41 10.167,3.41 0.807,0 1.618,-0.058 2.43,-0.174 l 20.236,-2.898 c 2.733,-0.392 4.632,-2.925 4.24,-5.658 -0.391,-2.735 -2.916,-4.641 -5.658,-4.242 z"
           id="path9" /></g><polygon
         class="st1"
         points="466.126,396.671 441.961,393.368 466.157,253.826 485.772,256.264 "
         id="polygon9" /><path
         class="st1"
         d="m 316.652,502.264 h -43.717 c -8.837,0 -16,-7.163 -16,-16 v -4.533 h 75.717 v 4.533 c 0,8.836 -7.163,16 -16,16 z"
         id="path10" /><g
         id="g11"><path
           class="st3"
           d="m 52.2,156.963 c -0.653,0 -1.309,-0.128 -1.926,-0.386 l -29.997,-12.52 c -2.306,-0.962 -3.547,-3.479 -2.908,-5.894 5.228,-19.745 15.094,-37.812 29.325,-53.698 18.146,-20.258 43.121,-36.7 74.231,-48.869 2.566,-1.008 5.472,0.263 6.478,2.835 1.006,2.571 -0.263,5.472 -2.835,6.478 C 94.93,56.503 71.235,72.057 54.144,91.138 41.991,104.704 33.286,119.959 28.228,136.54 l 20.526,8.566 c 4.069,-14.487 11.378,-27.682 21.775,-39.289 14.556,-16.248 35.133,-29.709 61.161,-40.009 2.565,-1.017 5.473,0.242 6.489,2.81 1.016,2.567 -0.242,5.473 -2.81,6.489 -24.572,9.724 -43.882,22.301 -57.392,37.382 -10.599,11.831 -17.627,25.468 -20.892,40.532 -0.314,1.451 -1.257,2.688 -2.573,3.374 -0.721,0.377 -1.516,0.568 -2.312,0.568 z"
           id="path11" /></g><g
         id="g17"><g
           id="g12"><path
             class="st4"
             d="m 251.693,269.076 h -66.325 c -2.762,0 -5,-2.238 -5,-5 0,-2.762 2.238,-5 5,-5 h 66.325 c 2.762,0 5,2.238 5,5 0,2.762 -2.238,5 -5,5 z"
             id="path12" /></g><g
           id="g13"><path
             class="st4"
             d="M 251.693,300.62 H 238.78 c -2.762,0 -5,-2.238 -5,-5 0,-2.762 2.238,-5 5,-5 h 12.913 c 2.762,0 5,2.238 5,5 0,2.762 -2.238,5 -5,5 z"
             id="path13" /></g><g
           id="g14"><path
             class="st4"
             d="m 210.025,300.62 h -24.657 c -2.762,0 -5,-2.238 -5,-5 0,-2.762 2.238,-5 5,-5 h 24.657 c 2.762,0 5,2.238 5,5 0,2.762 -2.238,5 -5,5 z"
             id="path14" /></g><g
           id="g15"><path
             class="st3"
             d="m 323.53,205.843 h -66.325 c -2.762,0 -5,-2.238 -5,-5 0,-2.762 2.238,-5 5,-5 h 66.325 c 2.762,0 5,2.238 5,5 0,2.762 -2.238,5 -5,5 z"
             id="path15" /></g><g
           id="g16"><path
             class="st3"
             d="m 323.53,237.387 h -12.913 c -2.762,0 -5,-2.238 -5,-5 0,-2.762 2.238,-5 5,-5 h 12.913 c 2.762,0 5,2.238 5,5 0,2.762 -2.238,5 -5,5 z"
             id="path16" /></g></g><g
         id="g20"><g
           id="g18"><path
             class="st3"
             d="m 488.322,262.67 c -0.235,0 -0.475,-0.017 -0.715,-0.052 -2.733,-0.392 -4.632,-2.925 -4.24,-5.658 l 8.667,-60.526 -27.544,-3.944 -11.996,38.051 c -0.831,2.634 -3.64,4.098 -6.271,3.266 -2.634,-0.83 -4.096,-3.639 -3.266,-6.271 l 13.272,-42.099 c 0.735,-2.336 3.062,-3.789 5.478,-3.446 l 36.694,5.255 c 2.733,0.392 4.632,2.925 4.24,5.658 l -9.376,65.476 c -0.356,2.491 -2.495,4.29 -4.943,4.29 z"
             id="path17" /></g><g
           id="g19"><path
             class="st4"
             d="M 124.927,260.748 C 121.409,236.191 98.57,219.066 74.015,222.592 l -8.356,1.196 c -7.826,1.12 -14.764,5.242 -19.533,11.606 -4.769,6.364 -6.779,14.18 -5.658,22.007 l 19.266,134.53 c 1.12,7.826 5.242,14.764 11.606,19.533 5.213,3.907 11.398,5.963 17.768,5.963 1.407,0 2.823,-0.101 4.239,-0.304 l 8.356,-1.197 c 24.554,-3.518 41.672,-26.355 38.156,-50.911 z"
             id="path18" /></g></g><path
         class="st2"
         d="m 499.011,259.189 c -2.729,-3.641 -6.7,-5.999 -11.182,-6.641 l -20.236,-2.898 c -2.739,-0.4 -5.268,1.507 -5.658,4.24 -0.392,2.733 1.507,5.267 4.24,5.658 l 20.236,2.898 c 1.838,0.264 3.471,1.236 4.598,2.74 1.127,1.503 1.603,3.343 1.34,5.181 l -16.571,115.721 c -0.264,1.838 -1.236,3.471 -2.74,4.598 -1.505,1.127 -3.351,1.599 -5.182,1.34 l -20.236,-2.898 c -2.735,-0.404 -5.267,1.508 -5.658,4.24 -0.392,2.733 1.507,5.267 4.24,5.658 l 9.054,1.297 c -1.729,7.231 -6.386,21.637 -18.058,35.866 -22.067,26.901 -57.503,40.541 -105.322,40.541 -2.762,0 -5,2.238 -5,5 0,2.762 2.238,5 5,5 63.826,0 96.912,-24.285 113.429,-44.658 13.144,-16.212 18.125,-32.361 19.906,-40.323 1.172,0.176 2.484,0.366 3.658,0.35 3.646,0 7.186,-1.176 10.167,-3.41 3.642,-2.729 6,-6.7 6.642,-11.182 l 16.571,-115.721 c 0.641,-4.482 -0.509,-8.955 -3.238,-12.597 z"
         id="path20" /><path
         class="st4"
         d="m 465.875,235.395 c -4.77,-6.364 -11.707,-10.486 -19.533,-11.606 l -8.356,-1.196 c -24.552,-3.517 -47.396,13.6 -50.912,38.156 l -14.932,104.268 c -3.517,24.557 13.601,47.396 38.156,50.911 l 8.356,1.197 c 1.417,0.203 2.832,0.304 4.239,0.304 6.368,-10e-4 12.555,-2.056 17.768,-5.963 6.364,-4.77 10.486,-11.707 11.606,-19.533 l 19.266,-134.53 c 1.121,-7.829 -0.888,-15.644 -5.658,-22.008 z"
         id="path21" /><path
         class="st2"
         d="m 256,62.139 c 35.896,0 72.206,5.275 102.242,14.855 2.867,0.914 5.833,1.378 8.817,1.378 12.67,0 23.771,-8.116 27.623,-20.195 2.354,-7.38 1.692,-15.235 -1.861,-22.117 C 389.266,29.177 383.245,24.09 375.865,21.737 330.262,7.191 285.511,4.139 256,4.139 c -29.511,0 -74.262,3.053 -119.865,17.598 -7.38,2.354 -13.401,7.44 -16.956,14.323 -3.554,6.882 -4.215,14.737 -1.861,22.116 3.852,12.08 14.953,20.196 27.623,20.196 2.984,0 5.95,-0.464 8.817,-1.378 C 183.794,67.414 220.104,62.139 256,62.139 Z m -111.06,6.233 c -8.3,0 -15.571,-5.318 -18.096,-13.234 -1.542,-4.835 -1.109,-9.981 1.22,-14.49 2.328,-4.509 6.273,-7.842 11.109,-9.384 C 183.551,17.109 227.198,14.139 256,14.139 c 28.802,0 72.449,2.971 116.826,17.125 4.836,1.542 8.781,4.875 11.109,9.384 2.329,4.509 2.762,9.655 1.22,14.49 -2.524,7.916 -9.796,13.234 -18.096,13.234 -1.951,0 -3.896,-0.305 -5.778,-0.905 C 330.288,57.582 292.898,52.139 256,52.139 c -36.898,0 -74.288,5.443 -105.281,15.328 -1.883,0.6 -3.827,0.905 -5.779,0.905 z"
         id="path22" /><g
         id="g23"><path
           class="st3"
           d="m 310.744,507.861 h -32.409 c -14.408,0 -26.13,-11.723 -26.13,-26.131 0,-14.408 11.722,-26.13 26.13,-26.13 h 32.409 c 14.408,0 26.131,11.722 26.131,26.13 0,14.408 -11.723,26.131 -26.131,26.131 z m -32.409,-42.26 c -8.895,0 -16.13,7.235 -16.13,16.13 0,8.895 7.235,16.131 16.13,16.131 h 32.409 c 8.895,0 16.131,-7.236 16.131,-16.131 0,-8.895 -7.236,-16.13 -16.131,-16.13 z"
           id="path23" /></g></g></g></svg>
